<svg xmlns="http://www.w3.org/2000/svg" xml:space="preserve" width="140px" height="140px" x="0px" y="0px" viewBox="227.161 351.619 140 140"><linearGradient id="a" x1="297.1609" x2="297.1609" y1="351.6191" y2="491.6196" gradientUnits="userSpaceOnUse"><stop offset="0" style="stop-color:#817e46"/><stop offset="1" style="stop-color:#6e0f5b"/></linearGradient><circle cx="297.161" cy="421.619" r="70" fill="url(#a)"/><circle cx="297.198" cy="421.712" r="64.095" fill="#1C1B1B"/><linearGradient id="b" x1="0.6379" x2="0.8775" y1="841.3965" y2="841.3965" gradientTransform="scale(-226.1652 226.1652) rotate(-88.363 -432.208 422.7)" gradientUnits="userSpaceOnUse"><stop offset="0" style="stop-color:#fff1cd"/><stop offset="0.51" style="stop-color:#fff4d9"/><stop offset="1" style="stop-color:#fff"/></linearGradient><path fill="url(#b)" d="m315.077 394.365-17.131 46.904c-.259.706-1.262.706-1.521 0L279.3 394.365a.817.817 0 0 0-.757-.535h-5.797a.808.808 0 0 0-.75 1.106l21.236 54.231a.803.803 0 0 0 .75.512h6.421c.334 0 .63-.2.75-.512l21.236-54.231a.813.813 0 0 0-.75-1.106h-5.798a.823.823 0 0 0-.764.535z"/><linearGradient id="c" x1="0.6282" x2="0.8676" y1="841.5137" y2="841.5137" gradientTransform="scale(118.853 -118.853) rotate(-89.585 -423.93 418.149)" gradientUnits="userSpaceOnUse"><stop offset="0" style="stop-color:#d21dad"/><stop offset="1" style="stop-color:#f1ff00"/></linearGradient><path fill="url(#c)" d="M298.807 424.36a1.807 1.807 0 0 1-3.236 0 226490.24 226490.24 0 0 0-13.956-27.902 1.794 1.794 0 0 1 .083-1.759 1.807 1.807 0 0 1 1.544-.861h27.902c.631 0 1.21.327 1.544.861.326.534.356 1.202.082 1.759-3.059 6.102-10.63 21.237-13.963 27.902z"/></svg>